<svg width="104" height="70" viewBox="0 0 104 70" fill="none" xmlns="http://www.w3.org/2000/svg">
<path d="M6.5 57.4421H7.6256V57.352C7.40949 57.289 7.34774 57.1295 7.34774 56.5609V54.922H9.99258V56.5609C9.99258 57.1295 9.92311 57.289 9.71471 57.352V57.4421H10.8403V57.352C10.6242 57.289 10.5625 57.1295 10.5625 56.5609V53.4632C10.5625 52.8946 10.6242 52.7351 10.8403 52.6721V52.582H9.71471V52.6721C9.92311 52.7351 9.99258 52.8946 9.99258 53.4632V54.8101H7.34774V53.4632C7.34774 52.8946 7.40949 52.7351 7.6256 52.6721V52.582H6.5V52.6721C6.7084 52.7351 6.77786 52.8946 6.77786 53.4632V56.5609C6.77786 57.1295 6.7084 57.289 6.5 57.352V57.4421Z" fill="#4B451B"/>
<path d="M14.8214 57.5121C15.9882 57.5121 17.2797 56.748 17.2797 55.0333C17.2797 53.3326 15.9946 52.5273 14.8214 52.5273C13.3498 52.5273 12.3502 53.5822 12.3502 55.0062C12.3502 56.7274 13.6418 57.5121 14.8214 57.5121ZM12.9047 54.6036C12.8635 53.4716 13.481 52.6869 14.5371 52.6869C15.7798 52.6869 16.6892 54.0402 16.7381 55.4912C16.7729 56.5332 16.2236 57.3385 15.1134 57.3385C13.8707 57.3385 12.9535 55.9981 12.9047 54.6036Z" fill="#4B451B"/>
<path d="M20.9407 57.5115C21.9068 57.5115 22.6697 56.9841 22.6697 55.5883V53.4632C22.6697 52.8946 22.7391 52.7351 22.9475 52.6721V52.582H22.0869V52.6721C22.3918 52.7557 22.559 52.9499 22.559 53.7411V55.6089C22.559 56.9699 21.7602 57.3662 21.1633 57.3662C20.2602 57.3662 19.5463 56.9005 19.5463 55.6089V53.4632C19.5463 52.8946 19.6158 52.7351 19.8229 52.6721V52.582H18.6985V52.6721C18.9134 52.7351 18.9764 52.8946 18.9764 53.4632V55.6514C18.9764 57.0458 19.9489 57.5115 20.9407 57.5115Z" fill="#4B451B"/>
<path d="M25.9299 57.5116C26.7493 57.5116 27.5546 56.9841 27.5546 56.1158C27.5546 55.3311 26.8329 55.0262 26.0624 54.7201C25.4719 54.477 24.7567 54.2132 24.7567 53.561C24.7567 52.9706 25.2352 52.6451 25.7987 52.6451C26.5898 52.6451 27.0761 53.0748 27.332 53.6794L27.4015 53.6588L27.3745 52.8522C27.1031 52.7069 26.6528 52.5332 26.0199 52.5332C24.9998 52.5332 24.3257 53.0478 24.3257 53.8595C24.3257 54.5953 24.8467 54.8873 25.6662 55.2128C26.2489 55.4495 27.1031 55.7685 27.1031 56.4632C27.1031 57.0253 26.6245 57.3868 26.0688 57.3868C25.104 57.3868 24.5766 56.768 24.3051 56.0399L24.2292 56.0541L24.264 57.0189C24.5907 57.2543 25.2005 57.5116 25.9299 57.5116Z" fill="#4B451B"/>
<path d="M28.9335 57.4421H32.3566L32.4119 56.5184L32.336 56.5043C32.0864 57.15 31.6619 57.3379 30.9956 57.3379H30.0938C29.8918 57.3379 29.7812 57.2272 29.7812 57.0253V54.8937H30.6701C31.4612 54.8937 31.6619 55.0532 31.7455 55.3658H31.8292V54.3174H31.7455C31.6619 54.63 31.4612 54.7895 30.6701 54.7895H29.7812V52.6862H30.8013C31.5101 52.6862 31.9192 52.8946 32.1623 53.5057L32.2382 53.4851L32.1623 52.582H28.9335V52.6721C29.1419 52.7351 29.2113 52.8946 29.2113 53.4632V56.5609C29.2113 57.1295 29.1419 57.289 28.9335 57.352V57.4421Z" fill="#4B451B"/>
<path d="M36.0881 57.4421H37.907C39.4353 57.4421 40.4207 56.3872 40.4142 54.922C40.4065 53.7964 39.6565 52.582 37.7475 52.582H36.0881V52.6721C36.2965 52.7351 36.3659 52.8946 36.3659 53.4632V56.5609C36.3659 57.1295 36.2965 57.289 36.0881 57.352V57.4421ZM36.9358 56.831V52.6862H37.4079C38.9555 52.6862 39.7826 53.8105 39.7826 55.1999C39.7826 56.6509 39.1085 57.3379 37.8942 57.3379H37.3873C37.0053 57.3379 36.9358 57.1578 36.9358 56.831Z" fill="#4B451B"/>
<path d="M41.9236 57.4421H43.0492V57.352C42.8331 57.289 42.7713 57.1295 42.7713 56.5609V53.4632C42.7713 52.8946 42.8331 52.7351 43.0492 52.6721V52.582H41.9236V52.6721C42.132 52.7351 42.2014 52.8946 42.2014 53.4632V56.5609C42.2014 57.1295 42.132 57.289 41.9236 57.352V57.4421Z" fill="#4B451B"/>
<path d="M44.0887 57.4427H44.8734V57.3526C44.638 57.3037 44.6097 57.0748 44.7898 56.6232L45.2001 55.6096H47.158L47.5813 56.631C47.8038 57.1507 47.8591 57.2896 47.6443 57.3526V57.4427H48.7197V57.3526C48.5744 57.2896 48.4071 57.1507 48.1923 56.631L46.484 52.5273L45.963 52.7628L46.026 52.9094C46.0813 53.02 46.089 53.1101 46.0402 53.2349L44.6727 56.6232C44.4566 57.1507 44.2829 57.2896 44.0887 57.3526V57.4427ZM45.2413 55.5054L46.1649 53.2207L47.1156 55.5054H45.2413Z" fill="#4B451B"/>
<path d="M53.3473 57.4909C53.4862 57.4909 53.6676 57.4768 53.7718 57.4421V57.3584C53.7371 57.3662 53.7023 57.3662 53.6599 57.3662C53.4245 57.3662 53.2855 57.1372 52.9524 56.3036C52.6192 55.4494 52.4867 55.0262 51.6325 54.9143C52.5356 54.8101 53.0077 54.3174 53.0077 53.6652C53.0077 53.0477 52.5909 52.582 51.1823 52.582H49.8135V52.6721C50.0297 52.7351 50.0914 52.8946 50.0914 53.4632V56.5609C50.0914 57.1295 50.0297 57.289 49.8135 57.352V57.4421H50.9391V57.352C50.723 57.289 50.6613 57.1295 50.6613 56.5609V54.9361H51.1051C51.9387 54.9361 51.994 55.4211 52.3966 56.3795C52.7015 57.1024 52.8134 57.4909 53.3473 57.4909ZM50.6613 54.8319V52.7004C50.7719 52.6927 50.8825 52.6862 50.9867 52.6862C52.0146 52.6862 52.4172 53.2072 52.4172 53.8247C52.4172 54.4152 52.0429 54.8319 51.244 54.8319H50.6613Z" fill="#4B451B"/>
<path d="M54.8651 57.4421H55.9907V57.352C55.7746 57.289 55.7129 57.1295 55.7129 56.5609V53.4632C55.7129 52.8946 55.7746 52.7351 55.9907 52.6721V52.582H54.8651V52.6721C55.0735 52.7351 55.143 52.8946 55.143 53.4632V56.5609C55.143 57.1295 55.0735 57.289 54.8651 57.352V57.4421Z" fill="#4B451B"/>
<path d="M57.5023 57.4421H60.9254L60.9807 56.5184L60.9048 56.5043C60.6553 57.15 60.2308 57.3379 59.5644 57.3379H58.6627C58.4607 57.3379 58.3501 57.2272 58.3501 57.0253V54.8937H59.239C60.0301 54.8937 60.2308 55.0532 60.3144 55.3658H60.398V54.3174H60.3144C60.2308 54.63 60.0301 54.7895 59.239 54.7895H58.3501V52.6862H59.3702C60.079 52.6862 60.4881 52.8946 60.7312 53.5057L60.8071 53.4851L60.7312 52.582H57.5023V52.6721C57.7107 52.7351 57.7802 52.8946 57.7802 53.4632V56.5609C57.7802 57.1295 57.7107 57.289 57.5023 57.352V57.4421Z" fill="#4B451B"/>
<path d="M64.019 57.5116C64.8385 57.5116 65.6438 56.9841 65.6438 56.1158C65.6438 55.3311 64.9221 55.0262 64.1515 54.7201C63.5611 54.477 62.8458 54.2132 62.8458 53.561C62.8458 52.9706 63.3244 52.6451 63.8878 52.6451C64.679 52.6451 65.1652 53.0748 65.4212 53.6794L65.4907 53.6588L65.4637 52.8522C65.1922 52.7069 64.742 52.5332 64.1091 52.5332C63.089 52.5332 62.4149 53.0478 62.4149 53.8595C62.4149 54.5953 62.9359 54.8873 63.7553 55.2128C64.3381 55.4495 65.1922 55.7685 65.1922 56.4632C65.1922 57.0253 64.7137 57.3868 64.158 57.3868C63.1932 57.3868 62.6657 56.768 62.3943 56.0399L62.3184 56.0541L62.3532 57.0189C62.6799 57.2543 63.2897 57.5116 64.019 57.5116Z" fill="#4B451B"/>
<path d="M70.9098 57.5116C71.7293 57.5116 72.5346 56.9841 72.5346 56.1158C72.5346 55.3311 71.8129 55.0262 71.0423 54.7201C70.4519 54.477 69.7367 54.2132 69.7367 53.561C69.7367 52.9706 70.2152 52.6451 70.7786 52.6451C71.5698 52.6451 72.056 53.0748 72.312 53.6794L72.3815 53.6588L72.3545 52.8522C72.083 52.7069 71.6328 52.5332 70.9999 52.5332C69.9798 52.5332 69.3057 53.0478 69.3057 53.8595C69.3057 54.5953 69.8267 54.8873 70.6461 55.2128C71.2289 55.4495 72.083 55.7685 72.083 56.4632C72.083 57.0253 71.6045 57.3868 71.0488 57.3868C70.084 57.3868 69.5566 56.768 69.2851 56.0399L69.2092 56.0541L69.244 57.0189C69.5707 57.2543 70.1805 57.5116 70.9098 57.5116Z" fill="#4B451B"/>
<path d="M74.9413 57.4421H76.0733V57.352C75.8572 57.289 75.7955 57.1295 75.7955 56.5609V52.6927H76.1222C76.7461 52.6927 77.0176 52.8599 77.253 53.359L77.3302 53.3462L77.2877 52.582H73.7128L73.6703 53.3462L73.7475 53.359C73.9829 52.8599 74.2544 52.6927 74.8783 52.6927H75.2192V56.5609C75.2192 57.1295 75.1561 57.289 74.9413 57.352V57.4421Z" fill="#4B451B"/>
<path d="M80.7565 57.5115C81.7226 57.5115 82.4854 56.9841 82.4854 55.5883V53.4632C82.4854 52.8946 82.5549 52.7351 82.7633 52.6721V52.582H81.9027V52.6721C82.2075 52.7557 82.3748 52.9499 82.3748 53.7411V55.6089C82.3748 56.9699 81.5759 57.3662 80.979 57.3662C80.076 57.3662 79.362 56.9005 79.362 55.6089V53.4632C79.362 52.8946 79.4315 52.7351 79.6386 52.6721V52.582H78.5143V52.6721C78.7291 52.7351 78.7921 52.8946 78.7921 53.4632V55.6514C78.7921 57.0458 79.7647 57.5115 80.7565 57.5115Z" fill="#4B451B"/>
<path d="M84.1208 57.4421H85.9398C87.468 57.4421 88.4534 56.3872 88.447 54.922C88.4392 53.7964 87.6893 52.582 85.7802 52.582H84.1208V52.6721C84.3292 52.7351 84.3987 52.8946 84.3987 53.4632V56.5609C84.3987 57.1295 84.3292 57.289 84.1208 57.352V57.4421ZM84.9685 56.831V52.6862H85.4406C86.9882 52.6862 87.8153 53.8105 87.8153 55.1999C87.8153 56.6509 87.1413 57.3379 85.9269 57.3379H85.4201C85.038 57.3379 84.9685 57.1578 84.9685 56.831Z" fill="#4B451B"/>
<path d="M89.9565 57.4421H91.0821V57.352C90.866 57.289 90.8042 57.1295 90.8042 56.5609V53.4632C90.8042 52.8946 90.866 52.7351 91.0821 52.6721V52.582H89.9565V52.6721C90.1649 52.7351 90.2343 52.8946 90.2343 53.4632V56.5609C90.2343 57.1295 90.1649 57.289 89.9565 57.352V57.4421Z" fill="#4B451B"/>
<path d="M95.0725 57.5121C96.2393 57.5121 97.5308 56.748 97.5308 55.0333C97.5308 53.3326 96.2457 52.5273 95.0725 52.5273C93.6009 52.5273 92.6013 53.5822 92.6013 55.0062C92.6013 56.7274 93.8929 57.5121 95.0725 57.5121ZM93.1558 54.6036C93.1146 53.4716 93.7321 52.6869 94.7882 52.6869C96.0309 52.6869 96.9403 54.0402 96.9892 55.4912C97.024 56.5332 96.4747 57.3385 95.3645 57.3385C94.1218 57.3385 93.2046 55.9981 93.1558 54.6036Z" fill="#4B451B"/>
<mask id="mask0_693_4616" style="mask-type:luminance" maskUnits="userSpaceOnUse" x="44" y="12" width="34" height="34">
<path d="M44.1874 12.5H77.0215V45.3328H44.1874V12.5Z" fill="white"/>
</mask>
<g mask="url(#mask0_693_4616)">
<path d="M77.037 45.3482H44.1874V12.5H49.854V17.9209H55.2904V23.3418H60.7267V28.764H66.163V34.1849H71.5993V39.6057H77.037V45.3482ZM44.5078 45.0279H76.7166V39.9261H71.279V34.5052H65.8427V29.0843H60.4064V23.6621H54.9688V18.2412H49.5337V12.8203H44.5078V45.0279Z" fill="#4B451B"/>
</g>
<mask id="mask1_693_4616" style="mask-type:luminance" maskUnits="userSpaceOnUse" x="33" y="29" width="23" height="23">
<path d="M33.1013 29.2246H55.2737V51.397H33.1013V29.2246Z" fill="white"/>
</mask>
<g mask="url(#mask1_693_4616)">
<mask id="mask2_693_4616" style="mask-type:luminance" maskUnits="userSpaceOnUse" x="33" y="29" width="23" height="23">
<path d="M44.1875 29.2246C38.0655 29.2246 33.1013 34.1875 33.1013 40.3108C33.1013 46.4341 38.0655 51.397 44.1875 51.397C50.3108 51.397 55.2737 46.4341 55.2737 40.3108C55.2737 34.1875 50.3108 29.2246 44.1875 29.2246Z" fill="white"/>
</mask>
<g mask="url(#mask2_693_4616)">
<path d="M33.1013 29.2246H55.2737V51.397H33.1013V29.2246Z" fill="#4B451B"/>
</g>
</g>
<mask id="mask3_693_4616" style="mask-type:luminance" maskUnits="userSpaceOnUse" x="33" y="29" width="23" height="13">
<path d="M33.1013 29.2246H55.32V41.0749H33.1013V29.2246Z" fill="white"/>
</mask>
<g mask="url(#mask3_693_4616)">
<path d="M33.1013 29.2246H55.32V41.0749H33.1013V29.2246Z" fill="#4B451B"/>
</g>
<mask id="mask4_693_4616" style="mask-type:luminance" maskUnits="userSpaceOnUse" x="26" y="22" width="14" height="14">
<path d="M26.9908 22.8125H39.2129V35.0346H26.9908V22.8125Z" fill="white"/>
</mask>
<g mask="url(#mask4_693_4616)">
<mask id="mask5_693_4616" style="mask-type:luminance" maskUnits="userSpaceOnUse" x="26" y="22" width="14" height="14">
<path d="M33.1012 35.0346C31.4701 35.0346 29.9341 34.4004 28.7802 33.2452C27.625 32.0913 26.9908 30.5553 26.9908 28.9242C26.9908 27.2917 27.625 25.7558 28.7802 24.6032C29.9341 23.448 31.4701 22.8125 33.1012 22.8125C34.7337 22.8125 36.2697 23.448 37.4223 24.6032C38.5775 25.7584 39.2129 27.2917 39.2129 28.9242C39.2129 30.5553 38.5775 32.0913 37.4223 33.2452C36.2697 34.4004 34.7337 35.0346 33.1012 35.0346ZM33.1012 23.1791C31.5679 23.1791 30.1245 23.7773 29.0401 24.8617C27.9556 25.9462 27.3562 27.3895 27.3562 28.9242C27.3562 30.4576 27.9556 31.9009 29.0401 32.9854C30.1245 34.0698 31.5679 34.668 33.1012 34.668C34.6359 34.668 36.0793 34.0698 37.1637 32.9854C38.2481 31.9009 38.8463 30.4576 38.8463 28.9242C38.8463 27.3895 38.2481 25.9462 37.1637 24.8617C36.0793 23.7773 34.6359 23.1791 33.1012 23.1791Z" fill="white"/>
</mask>
<g mask="url(#mask5_693_4616)">
<path d="M26.9908 22.8125H39.2129V35.0346H26.9908V22.8125Z" fill="#4B451B"/>
</g>
</g>
<mask id="mask6_693_4616" style="mask-type:luminance" maskUnits="userSpaceOnUse" x="66" y="16" width="7" height="7">
<path d="M66.7599 16.7759H72.797V22.813H66.7599V16.7759Z" fill="white"/>
</mask>
<g mask="url(#mask6_693_4616)">
<mask id="mask7_693_4616" style="mask-type:luminance" maskUnits="userSpaceOnUse" x="66" y="16" width="7" height="7">
<path d="M69.7778 16.7759C68.112 16.7759 66.7599 18.1279 66.7599 19.7951C66.7599 21.4622 68.112 22.813 69.7778 22.813C71.445 22.813 72.797 21.4622 72.797 19.7951C72.797 18.1279 71.445 16.7759 69.7778 16.7759Z" fill="white"/>
</mask>
<g mask="url(#mask7_693_4616)">
<path d="M66.7599 16.7759H72.797V22.813H66.7599V16.7759Z" fill="#4B451B"/>
</g>
</g>
</svg>
